<svg width="24.000000" height="24.000000" viewBox="0 0 24 24" fill="none" xmlns="http://www.w3.org/2000/svg" xmlns:xlink="http://www.w3.org/1999/xlink">
	<desc>
			Created with Pixso.
	</desc>
	<defs>
		<clipPath id="clip653_184">
			<rect rx="0.000000" width="23.000000" height="23.000000" transform="translate(0.500000 0.500000)" fill="white" fill-opacity="0"/>
		</clipPath>
	</defs>
	<rect rx="0.000000" width="23.000000" height="23.000000" transform="translate(0.500000 0.500000)" fill="#FFFFFF" fill-opacity="0"/>
	<g clip-path="url(#clip653_184)">
		<path d="M21.53 8.06C21.52 7.26 21.37 6.46 21.09 5.7C20.59 4.42 19.57 3.4 18.28 2.9C17.53 2.62 16.75 2.47 15.95 2.45C14.92 2.41 14.6 2.39 11.99 2.39C9.39 2.39 9.06 2.39 8.04 2.45C7.24 2.47 6.45 2.62 5.71 2.9C4.42 3.4 3.4 4.42 2.9 5.7C2.62 6.45 2.47 7.23 2.45 8.03C2.41 9.05 2.4 9.38 2.4 11.98C2.4 14.58 2.4 14.91 2.45 15.93C2.47 16.72 2.62 17.51 2.9 18.25C3.4 19.54 4.42 20.56 5.71 21.06C6.45 21.35 7.24 21.51 8.04 21.54C9.07 21.58 9.39 21.59 12 21.59C14.6 21.59 14.93 21.59 15.95 21.54C16.75 21.52 17.54 21.37 18.28 21.09C19.57 20.59 20.59 19.57 21.09 18.29C21.37 17.54 21.52 16.76 21.54 15.96C21.58 14.93 21.6 14.61 21.6 12.01C21.59 9.41 21.59 9.08 21.53 8.06ZM11.99 16.89C9.26 16.89 7.06 14.69 7.06 11.97C7.06 9.25 9.26 7.05 11.99 7.05C14.71 7.05 16.92 9.25 16.92 11.97C16.92 14.69 14.71 16.89 11.99 16.89ZM17.11 8.02C16.48 8.02 15.96 7.5 15.96 6.87C15.96 6.24 16.48 5.72 17.11 5.72C17.75 5.72 18.26 6.24 18.26 6.87C18.26 7.5 17.75 8.02 17.11 8.02Z" fill="#111111" fill-opacity="1.000000" fill-rule="nonzero"/>
		<path d="M14.99 11.97C14.99 13.63 13.65 14.98 11.99 14.98C10.33 14.98 8.99 13.63 8.99 11.97C8.99 10.32 10.33 8.97 11.99 8.97C13.65 8.97 14.99 10.32 14.99 11.97Z" fill="#111111" fill-opacity="1.000000" fill-rule="evenodd"/>
	</g>
</svg>
