<svg width="24.000000" height="24.000000" viewBox="0 0 24 24" fill="none" xmlns="http://www.w3.org/2000/svg" xmlns:xlink="http://www.w3.org/1999/xlink">
	<desc>
			Created with Pixso.
	</desc>
	<defs>
		<clipPath id="clip2_45">
			<rect rx="0.000000" width="23.000000" height="23.000000" transform="translate(0.500000 0.500000)" fill="white" fill-opacity="0"/>
		</clipPath>
	</defs>
	<g clip-path="url(#clip2_45)">
		<path d="M14.64 3.48C14.81 3.48 14.99 3.48 15.36 3.48L15.36 6.18C15.18 6.18 14.81 6.18 14.46 6.18C14.09 6.18 13.74 6.18 13.56 6.36C13.37 6.54 13.37 6.72 13.37 7.14C13.37 7.5 13.37 7.74 13.37 8.1L15.36 8.1L15.36 10.38L13.37 10.38L13.37 20.28L10.31 20.28L10.31 10.32L8.69 10.32L8.69 8.04L10.31 8.04L10.31 7.26C10.31 5.94 10.5 4.98 10.86 4.56C11.4 3.78 12.47 3.42 14.09 3.42C14.27 3.48 14.46 3.48 14.64 3.48Z" fill="#111111" fill-opacity="1.000000" fill-rule="nonzero"/>
	</g>
</svg>
