<svg width="24.000000" height="24.000000" viewBox="0 0 24 24" fill="none" xmlns="http://www.w3.org/2000/svg" xmlns:xlink="http://www.w3.org/1999/xlink">
	<desc>
			Created with Pixso.
	</desc>
	<defs>
		<clipPath id="clip653_186">
			<rect rx="0.000000" width="23.000000" height="23.000000" transform="translate(0.500000 0.500000)" fill="white" fill-opacity="0"/>
		</clipPath>
	</defs>
	<rect rx="0.000000" width="23.000000" height="23.000000" transform="translate(0.500000 0.500000)" fill="#FFFFFF" fill-opacity="0"/>
	<g clip-path="url(#clip653_186)">
		<path d="M22 5.92C21.25 6.25 20.46 6.46 19.63 6.57C20.48 6.06 21.13 5.26 21.44 4.3C20.64 4.77 19.77 5.11 18.84 5.29C18.08 4.49 17.01 4 15.84 4C13.57 4 11.74 5.84 11.74 8.1C11.74 8.42 11.77 8.73 11.84 9.03C8.43 8.87 5.41 7.23 3.39 4.74C3.03 5.36 2.83 6.06 2.83 6.82C2.83 8.23 3.56 9.49 4.65 10.22C3.99 10.21 3.34 10.02 2.79 9.72C2.79 9.73 2.79 9.75 2.79 9.76C2.79 11.76 4.22 13.41 6.08 13.79C5.75 13.88 5.38 13.93 5.01 13.93C4.74 13.93 4.48 13.91 4.23 13.86C4.76 15.48 6.27 16.67 8.06 16.71C6.66 17.8 4.89 18.46 2.98 18.46C2.64 18.46 2.32 18.45 2 18.4C3.81 19.58 5.96 20.25 8.28 20.25C15.83 20.25 19.95 14 19.95 8.58C19.95 8.4 19.95 8.22 19.94 8.05C20.75 7.47 21.44 6.75 22 5.92Z" fill="#111111" fill-opacity="1.000000" fill-rule="evenodd"/>
	</g>
</svg>
